<svg version="1.2" xmlns="http://www.w3.org/2000/svg" viewBox="0 0 431 428" width="431" height="428"><style>.a{fill:#d8002b}</style><path fill-rule="evenodd" class="a" d="m298.9 23.1c38.6 7 98.2 28.3 102.7 36.7 2.4 4.4 0.4 111.4-2.3 128.2-17.3 106.5-69.3 179.4-162.3 227.4-21.5 11.1-20.2 11.2-46.5-3.1-89.2-48.1-142.2-124.2-156.3-224.3-4.2-30.3-5.3-123.9-1.4-129.8 8.3-12.6 89.3-35.3 144.9-40.6 33.7-3.1 86.3-0.8 121.2 5.5zm-128.5 2.1c-49.7 5.9-103.8 20.9-128.8 35.6l-3.6 2.1 0.1 34.9c0.2 165.7 44.1 250.5 161.4 311.3l16.8 8.7 12.6-6.2c89.1-44.3 145.7-118.9 161.1-212.6 3.9-23.4 4.9-39.6 5.7-91.3l0.7-45.5-3.2-1.3c-1.7-0.7-8.5-3.5-15.1-6.3-32.4-13.7-67.3-23-106.3-28.3-18-2.5-83.9-3.1-101.4-1.1zm108.5 13.5c34.4 5.2 69.1 15 97.7 27.7l6.1 2.6 0.7 6.8c3.7 35.8-4.3 145-11.2 152.1-0.4 0.5-4.7-2.7-9.4-7-16.8-15.7-17.6-16.1-19.9-9.8-0.8 2.2-1.6 4.6-1.9 5.2-0.2 0.7 3.7 4.3 8.7 7.9 19 14 19.4 19.9 4.2 51.1-17.4 35.7-45.8 70.1-76.4 92.9-17.3 12.8-52.3 34.1-59 35.8-2.9 0.8-19.3-7.3-37.3-18.2-19.6-11.9-21.8-14.4-9.6-11 27.3 7.4 68.4-0.6 96-18.7 36.9-24.3 55.4-57.1 63.9-113.3 1.7-11.2 4.5-24 6.8-31.4 2.1-6.9 5.1-17.2 6.7-22.8 1.6-5.7 4-12.3 5.3-14.7 4.9-9 3-15-7.2-22.5-3.4-2.5-9.7-7.7-13.9-11.6-4.3-3.9-9.4-8.1-11.4-9.3-7.9-4.7-5.2-17.8 3.8-18 10.3-0.3 10.8-0.7 12.1-9.1 0.6-4.2 1.5-8.2 1.9-8.9 0.5-0.7-0.3-3.6-1.8-6.5-4.2-8.4-6.1-16-5.4-22 2-16.5-27.2-21.4-54.9-9.2-22.1 9.7-34.9 9.7-52 0-12.9-7.2-22.5-9-29.5-5.5-4.3 2.3-4 2.5 2.2 1.9 6.5-0.6 13.9 2.6 23.4 10.2 6.8 5.5 6.5 7.4-0.8 4.8-8.7-3-20.1-1.5-32.3 4.3-14 6.6-17.2 6.8-22.5 1.6l-3.8-3.9 0.7 3.6c0.4 1.9 2.4 5.3 4.5 7.5l3.9 3.9-3.1 2.5c-3.5 2.8 0 2.4 4.6-0.6 6-3.7 21.6-6.2 25.1-4 0.8 0.5-4.7 3.9-14.6 8.9-22.6 11.5-34.9 11.5-39-0.1-1.3-3.7-1.3-3.7-1.3 2-0.1 9.7 6.1 14.3 19.7 14.3 6.1 0.1 6.5 1.2 1.5 4.9-10.8 8.3-23.2 7.4-28.9-1.9l-2.2-3.5 0.7 3.8c2.8 15.2 15.9 19 35.7 10.5 15.2-6.5 18-7.4 25.1-8 8.2-0.7 9.8 0.9 3.8 4-2.4 1.2-6 4.2-7.9 6.7-12.7 16-21.8 18.7-32.1 9.3l-2.5-2.3 1.2 3.5c4.7 13.5 21.8 13.9 37.4 0.8 13.7-11.6 15.7-10.7 5.8 2.4-10.9 14.5-18.8 18.3-31.3 15-5.4-1.4-5.8-1.4-3.8 0.1 10.9 8.3 22.9 6.4 41.4-6.5 10.6-7.5 35.8-14.5 39.3-11 2.3 2.4-11 9.2-22 11.4-7.6 1.4-12.3 5.3-13.3 10.8l-0.8 3.8 3-3.5c4-4.7 8.7-5.5 19.6-3.2 14.9 3.1 21.4 0.9 35.9-12.3 4.5-4.1 8.2-6.5 9.7-6.5h2.6l-2.5 5.7c-1.4 3.1-4.3 12.3-6.5 20.3-7.8 28.4-9.4 32.9-15.3 42.3-3.1 5.1-9.2 15.4-13.4 22.8-4.2 7.5-11.1 18.5-15.4 24.4-8.3 11.5-11.1 16.9-12.3 23.7-1 5.4 0.2 4.6 5.8-3.6 7-10.2 10.9-11.9 10.9-4.8 0 9.2 4.8 1 6-10.4 0.8-7 0.8-7 11.2-18.2 16.1-17.3 23-28.7 38.5-63.5 3.5-7.8 4-7.7 11.8 3.1 16.9 23.6 15.7 29.8-8.6 42.9-21.7 11.7-33 23.7-37.8 40-19 65.6-91.6 90.5-133.1 45.8-18.4-19.9-18.8-31.4-2.1-59.2 14.9-24.8 15.8-27.2 16.3-42.1 0.6-20.6-7.6-46.1-10.2-31.2-1.2 7.2-6.6 13.9-17.8 21.9-16.9 12.1-21.6 18.1-24 30.3-1.3 7.2-1.5 7.3-4.8 3.3-1.5-1.8-5.4-5-8.6-7.2-10.7-7.1-14.7-37.5-14.7-111.3v-41.9l4-2.2c21.7-12.1 74.1-25.8 118.6-31.1 12.5-1.5 92.2 0.3 106.3 2.4z"/></svg>