<svg version="1.2" xmlns="http://www.w3.org/2000/svg" viewBox="0 0 422 416" width="422" height="416">
	<style>
		.s0 { fill: #ffffff } 
	</style>
	<g>
		<path class="s0" d="m194.5 29.6c-2.2 0.2-10.7 0.8-19 1.4-32.6 2.5-64.7 9-94 19.1-14.6 5-37.9 15-40.2 17.2-1.9 1.9-2.7 51.8-1.4 80.7 1.4 30 2.3 38.2 6.2 58 5.5 28.2 11.6 46.4 23.6 70.4 25.5 51 67.3 92.3 121.7 120.1 13.9 7.2 17.5 8.6 20.1 8.2 1.8-0.3 8.6-3.2 15.1-6.5 32.6-16.3 55.7-33 79.3-57.5 12.6-13.1 14.2-14.9 23.9-28.4 28.3-39 42.7-77.8 50.3-135.3 1.6-12.7 2.4-105.1 0.9-108-1.3-2.5-15.3-9.4-32-15.8-11.8-4.5-33.2-10.9-49-14.7-27.8-6.5-79.1-10.9-105.5-8.9zm66.1 8.3c36.1 4.3 72.9 14.2 103.2 27.8l12.2 5.5v40.2c0 49.5-2 75-7.6 100.1-12 53.2-35.7 95.6-74 132.5-19.2 18.6-43.1 35.3-68.3 48l-15.8 7.8-16.4-8.5c-29.9-15.4-48.7-29-70.9-51.3-23.6-23.5-40.5-48.1-54-78.4-11.5-25.8-18.2-53.3-22-90.4-0.9-8.6-1.8-89.2-1.1-99 0.1-0.7 4-3 8.9-5.3 35.2-16.4 80.9-27.6 125.2-30.9 19.4-1.4 61.3-0.4 80.6 1.9z"/>
		<path class="s0" d="m175 47.7c-16.1 0.9-49.4 6.7-65.3 11.3-20.9 6.2-44.9 14.9-50.2 18.4l-2.5 1.6v36.3c0 44.2 1.6 66.7 6.7 92.5 1.6 8.2 1.7 8.3 5.7 10.4 2.2 1.1 5.9 4.1 8.2 6.6l4.1 4.4 0.6-5c0.7-5.6 4.1-13.2 8.3-18.1 1.5-1.8 6.1-5.5 10.3-8.3 14.4-9.7 18.3-14.2 20.4-23.4l1.3-5.7 2.6 4.4c5 8.5 6.3 14.3 6.3 27.9-0.1 11.6-0.3 13.1-3.1 20.1-1.7 4.2-6.3 12.5-10.2 18.5-14.9 23-16.6 30.2-9.9 43.7 5.7 11.6 16.7 22.2 28.9 28.1 10.9 5.2 16.9 6.6 28.2 6.6 10.2 0 21.1-2.7 30.8-7.6 20.9-10.4 32.9-25.5 44-55.3 7.3-19.9 14.5-27.5 35.5-37.7 10.3-5.1 13.9-7.4 15.4-9.8 2.3-3.7 2.5-10.3 0.5-15.1-2.4-5.7-15.1-23.4-16.1-22.4-0.2 0.3-2.7 5.6-5.6 11.9-13.6 30.2-18 37.4-32.1 52l-10.8 11.1v5.7c0 3.4-0.8 7.4-1.9 9.8-2.8 6.1-4.1 6.4-4.1 1 0-2.5-0.3-4.7-0.8-4.9-1.3-0.9-5.9 3.7-9.6 9.5-4.2 6.7-5.6 7.8-5.6 4.5 0-7 5-16.8 14.1-27.7 2.1-2.5 7.5-11.3 12-19.5 4.5-8.3 9.9-17.5 11.9-20.5 5.8-8.5 6.7-10.8 10.5-25.6 5.2-20 8.4-30.4 10.5-34.2 1.8-3 1.8-3.2 0.2-3.2-2.5 0-6.5 2.9-12.6 9.1-7 7.2-12.7 9.9-21 9.9-3.5 0-8.3-0.7-10.6-1.5-7.9-2.8-14.5-1.2-17.4 4.3l-1.5 2.7-0.1-3.5c0-2 0.7-4.6 1.6-5.9 2.2-3 8.9-6.1 13.7-6.1 4.6 0 11.5-3.2 15-6.8l2.7-2.8-9.8 1.2c-15.9 1.9-16.2 2-30.3 12.2-11.7 8.5-21.4 10.3-30.6 5.7-2.8-1.4-5.4-3.3-5.7-4.1-0.5-1.2-0.2-1.3 1.6-0.3 6.3 3.4 16.5 2.7 22.9-1.5 2.1-1.4 5.7-5.4 8-8.8 2.3-3.5 5.3-7.5 6.7-9.1 5.4-5.8-3.3-1.3-10.5 5.5-9.2 8.6-19 11.1-27.2 6.8-4-2-8.1-7.4-8.1-10.6 0-1.6 0.2-1.6 1.6 0.4 2.3 3.3 6.7 5.2 12.1 5.2 6.3 0 10.3-2.5 14.6-9.3 3.6-5.6 8.4-9.9 12.5-11.2 4.4-1.3 1-2.5-6-2-5.8 0.5-8.8 1.4-17.4 5.6-5.6 2.7-12.9 5.5-16.1 6.1-12.8 2.3-22.3-4.4-22.3-15.9v-3.8l1.9 4.2c3.7 7.9 13.4 10 23 4.8 2.8-1.6 5.7-3.6 6.6-4.5 1.4-1.6 1-1.7-5.7-1.6-12 0-18.4-5.2-17.5-14.2 0.6-5.4 2.2-7.3 2.3-2.7 0.2 9.7 14.3 12.2 28.3 5 2.5-1.3 8.6-4.4 13.5-6.9l8.8-4.4-4.5-0.7c-5-0.8-15.2 1.4-20.1 4.4-1.7 1-4.4 2.2-6.1 2.5l-3 0.8 3.6-2.8 3.5-2.8-3.8-3.7c-3.1-3-3.8-4.3-3.8-7.5v-3.9l2 3.3c2 3.3 5.4 5.2 9.1 5.2 1.2 0 6.8-2.4 12.6-5.3 10.3-5 10.8-5.2 18.7-5.1 4.5 0.1 10.1 0.7 12.5 1.3 2.3 0.7 4.5 1.1 4.7 0.9 0.4-0.5-9.7-8.6-14.5-11.5-4.4-2.8-11.1-3.9-15.1-2.5-3.8 1.4-3.9 0.2-0.1-2.1 7.5-4.4 16-3 28.8 4.7 8.5 5.1 16.2 7 26.4 6.4 6.6-0.3 8.8-1 20.5-6.5 16.7-8 22.1-8.7 36.8-4.9 5.4 1.4 10.7 3.3 11.8 4.2 2.7 2.5 4.3 8.6 2.9 11.2-0.9 1.7-0.6 3.7 1.4 9.9 1.4 4.3 3.5 9.1 4.7 10.7 1.9 2.6 1.9 3 0.5 4.1-1.2 0.8-1.7 3-1.8 7.6-0.1 3.5-0.7 7-1.2 7.7-0.7 0.8-3.2 1.2-7.5 1.1-8.1-0.2-10.2 1.6-10.2 9.1 0 5.1 1.4 6.9 8.1 9.7 1.5 0.6 4.4 3.2 6.5 5.8 2.2 2.5 7.2 6.9 11.2 9.7 4.1 2.8 8.3 6.4 9.3 8.2 2.7 4.2 2 10.3-1.7 15.9-1.6 2.3-2.9 5.9-3.1 8-0.2 2.1-2.3 9.8-4.7 17-6 18-6.2 18.7-9 39.3-3.1 22.7-6.9 36.5-14.6 52-7.2 14.6-14.8 25.2-26.1 35.9-17.3 16.5-37.5 27.2-60.4 32-11.8 2.5-34.5 2.3-45-0.3-4.4-1.1-8.1-1.9-8.3-1.7-1.2 1.2 26.9 18.3 40.3 24.6l8.4 4 8.3-4.2c20.2-10.1 46.8-27.9 62.3-41.7 20.4-18.1 40.3-43.8 52.9-68.3 17-33 16.9-39-0.8-51.5l-9.4-6.6 2.1-5.1c1.1-2.9 2.2-5.3 2.3-5.5 0.7-1.1 7.1 3.8 15.5 11.7l9.7 9 1.5-5.7c6.6-23.9 9.6-63.8 9-119.3l-0.3-21.6-10.7-4.6c-31-13.2-66.8-22.2-100.2-25.2-15.8-1.4-58.9-1.8-78.1-0.8z"/>
	</g>
</svg>